<svg xmlns="http://www.w3.org/2000/svg" viewBox="0 0 32 32" width="32" height="32">
  <!-- Background circle -->
  <circle cx="16" cy="16" r="15" fill="#2563eb" stroke="#1d4ed8" stroke-width="1"/>
  
  <!-- Gurukul "G" letter -->
  <path d="M8 12 C8 8, 12 6, 16 6 C20 6, 24 8, 24 12 L24 16 L20 16 L20 12 C20 10, 18 8, 16 8 C14 8, 12 10, 12 12 L12 20 C12 22, 14 24, 16 24 C18 24, 20 22, 20 20 L20 18 L16 18 L16 16 L24 16 L24 20 C24 24, 20 26, 16 26 C12 26, 8 24, 8 20 Z" fill="white"/>
  
  <!-- Small dot accent -->
  <circle cx="22" cy="10" r="1.5" fill="#fbbf24"/>
</svg>